<svg width="269" height="146" viewBox="0 0 269 146" fill="none" xmlns="http://www.w3.org/2000/svg">
<g clip-path="url(#clip0_49_87)">
<path d="M145.001 4.6607C145.634 4.04179 146.7 4.4904 146.7 5.37582V109.356C146.7 109.621 146.595 109.875 146.407 110.063L113.527 142.943C112.897 143.573 111.82 143.127 111.82 142.236V37.4912C111.82 37.2218 111.929 36.9639 112.121 36.7757L139.16 10.37L145.001 4.6607Z" fill="#0033FF" stroke="#0033FF" stroke-width="4" stroke-miterlimit="10"/>
<path d="M92.2888 56.7147C92.6899 57.1071 92.6897 57.7527 92.2883 58.1449L58.4589 91.1971C58.0703 91.5768 57.4497 91.5768 57.0612 91.1971L37.59 72.17L3.43361 38.797C3.03534 38.4079 3.03163 37.7684 3.42536 37.3746L36.8907 3.90934C37.2781 3.52186 37.9053 3.51841 38.297 3.90159L92.2888 56.7147Z" fill="#EEEEEE" stroke="#0033FF" stroke-width="4" stroke-miterlimit="10"/>
<g opacity="0.3">
<path d="M43.64 9.13H31.67" stroke="#0033FF" stroke-width="2" stroke-miterlimit="10"/>
<path d="M50.96 16.29H24.51" stroke="#0033FF" stroke-width="2" stroke-miterlimit="10"/>
<path d="M58.28 23.45H17.35" stroke="#0033FF" stroke-width="2" stroke-miterlimit="10"/>
<path d="M65.6 30.61H10.19" stroke="#0033FF" stroke-width="2" stroke-miterlimit="10"/>
<path d="M72.93 37.78H3.02" stroke="#0033FF" stroke-width="2" stroke-miterlimit="10"/>
<path d="M80.25 44.94H9.72" stroke="#0033FF" stroke-width="2" stroke-miterlimit="10"/>
<path d="M87.57 52.1H17.05" stroke="#0033FF" stroke-width="2" stroke-miterlimit="10"/>
<path d="M91.14 59.27H24.39" stroke="#0033FF" stroke-width="2" stroke-miterlimit="10"/>
<path d="M83.81 66.43H31.72" stroke="#0033FF" stroke-width="2" stroke-miterlimit="10"/>
<path d="M76.48 73.59H39.04" stroke="#0033FF" stroke-width="2" stroke-miterlimit="10"/>
<path d="M69.15 80.75H46.37" stroke="#0033FF" stroke-width="2" stroke-miterlimit="10"/>
<path d="M61.81 87.92H53.71" stroke="#0033FF" stroke-width="2" stroke-miterlimit="10"/>
</g>
<path d="M113.27 143.22H112.82" stroke="#0033FF" stroke-miterlimit="10"/>
<path d="M233.819 75.2058C234.011 75.3939 234.12 75.6518 234.12 75.9211V142.085C234.12 142.97 233.054 143.419 232.421 142.8L124.724 37.587C124.325 37.1979 124.322 36.5583 124.715 36.1646L158.181 2.69888C158.568 2.31158 159.195 2.30792 159.587 2.69066L233.819 75.2058Z" fill="#EEEEEE" stroke="#0033FF" stroke-width="4" stroke-miterlimit="10"/>
<g opacity="0.3">
<path d="M166 8L152 8" stroke="#0033FF" stroke-width="2" stroke-miterlimit="10"/>
<path d="M173 15L146 15" stroke="#0033FF" stroke-width="2" stroke-miterlimit="10"/>
<path d="M180 22L138 22" stroke="#0033FF" stroke-width="2" stroke-miterlimit="10"/>
<path d="M187 30L149.624 30L149.465 30L131 30" stroke="#0033FF" stroke-width="2" stroke-miterlimit="10"/>
<path d="M194 37.15H127" stroke="#0033FF" stroke-width="2" stroke-miterlimit="10"/>
<path d="M201 44.15H134" stroke="#0033FF" stroke-width="2" stroke-miterlimit="10"/>
<path d="M208 51.15H141" stroke="#0033FF" stroke-width="2" stroke-miterlimit="10"/>
<path d="M215 58.15H148" stroke="#0033FF" stroke-width="2" stroke-miterlimit="10"/>
<path d="M156.33 65.46H156.34H223" stroke="#0033FF" stroke-width="2" stroke-miterlimit="10"/>
<path d="M163.66 72.62H205H229.71" stroke="#0033FF" stroke-width="2" stroke-miterlimit="10"/>
<path d="M171 79.79H207.92H229.71" stroke="#0033FF" stroke-width="2" stroke-miterlimit="10"/>
<path d="M229.71 86.95H209.04H178.35" stroke="#0033FF" stroke-width="2" stroke-miterlimit="10"/>
<path d="M185.65 94.11H207.13H229.71" stroke="#0033FF" stroke-width="2" stroke-miterlimit="10"/>
<path d="M192.98 101.27H205.04H229.71" stroke="#0033FF" stroke-width="2" stroke-miterlimit="10"/>
<path d="M200.32 108.44H202.84H229.71" stroke="#0033FF" stroke-width="2" stroke-miterlimit="10"/>
<path d="M207.65 115.6H209.45H229.71" stroke="#0033FF" stroke-width="2" stroke-miterlimit="10"/>
<path d="M214.98 122.76H216.06H229.71" stroke="#0033FF" stroke-width="2" stroke-miterlimit="10"/>
<path d="M222.31 129.92H222.67H229.71" stroke="#0033FF" stroke-width="2" stroke-miterlimit="10"/>
</g>
<path d="M233.236 142.283C233.879 142.909 233.436 144 232.538 144H125C124.448 144 124 143.552 124 143V38.3684C124 37.4841 125.064 37.035 125.697 37.6517L159.159 70.213L199.015 108.984L233.236 142.283Z" fill="white" stroke="#0033FF" stroke-width="4" stroke-miterlimit="10"/>
<path d="M111.121 37.7503C111.754 37.1315 112.82 37.5801 112.82 38.4655V142.67C112.82 143.222 112.372 143.67 111.82 143.67H3.71C3.15772 143.67 2.71 143.222 2.71 142.67V38.4651C2.71 37.5798 3.77562 37.1312 4.40886 37.7499L37.59 70.17L57.0612 89.1971C57.4497 89.5768 58.0703 89.5768 58.4589 89.1971L93.0164 55.4335C93.0187 55.4313 93.0218 55.43 93.025 55.43V55.43C93.0282 55.43 93.0313 55.4287 93.0336 55.4265L111.121 37.7503Z" fill="white" stroke="#0033FF" stroke-width="4" stroke-miterlimit="10"/>
<path d="M265.173 3.70711C265.803 3.07714 266.88 3.52331 266.88 4.41421V109.166C266.88 109.431 266.775 109.685 266.587 109.873L233.707 142.753C233.077 143.383 232 142.937 232 142.046V37.2942C232 37.029 232.105 36.7746 232.293 36.5871L265.173 3.70711Z" fill="#0033FF" stroke="#0033FF" stroke-width="4" stroke-miterlimit="10"/>
</g>
<defs>
<clipPath id="clip0_49_87">
<rect width="269" height="146" fill="white"/>
</clipPath>
</defs>
</svg>
